:version 1.10
:name ASF
:units
  mass 1
  length 1
  angle deg
:documentation
  ASF file generated by Kaydara
:root
  axis xyz
  order  tx ty tz rx ry rz
  position 0 0 0
  orientation 0 0 0
:bonedata
  begin
    id 1
    name SpineDummy
    direction 0.999998 -0.00179978 1.38929e-006
    length 3.60008
    axis 0 0 0 xyz
  end
  begin
    id 2
    name Spine
    direction 0.964365 0.262802 0.0305839
    length 8.13928
    axis 1.33928 -1.75354 15.2838 xyz
    dof rx ry rz
  end
  begin
    id 3
    name Spine1
    direction 0.811168 0.572065 0.12144
    length 7.14954
    axis 2.2224 -6.9761 35.2157 xyz
    dof rx ry rz
  end
  begin
    id 4
    name Neck
    direction 0 0 0
    length 0
    axis 2.2224 -6.9761 35.2157 xyz
    dof rx ry rz
  end
  begin
    id 5
    name HeadDummy
    direction 0.810939 0.572387 0.121455
    length 3.55534
    axis 2.2224 -6.9761 35.2157 xyz
  end
  begin
    id 6
    name Head
    direction 0.998226 -0.000232542 0.0595419
    length 7.35666
    axis -3.03688 -3.41352 -0.0133467 xyz
    dof rx ry rz
  end
  begin
    id 7
    name R_ClavicleDummy
    direction 0.531669 -0.194489 -0.824319
    length 2.49392
    axis 2.2224 -6.9761 35.2157 xyz
  end
  begin
    id 8
    name R_Clavicle
    direction -0.155119 0.0480802 -0.986725
    length 4.485
    axis -54.2764 80.6538 162.779 xyz
    dof rx ry rz
  end
  begin
    id 9
    name R_UpperArm
    direction -0.955567 0.200068 -0.216484
    length 10.1122
    axis -72.9943 12.5026 168.175 xyz
    dof rx ry rz
  end
  begin
    id 10
    name R_Forearm
    direction -0.61433 0.385743 0.688332
    length 9.39148
    axis -117.015 -43.4982 147.875 xyz
    dof rx ry rz
  end
  begin
    id 11
    name R_Hand
    direction -0.699429 0.0170333 0.714499
    length 3.66324
    axis -45.0303 -36.7097 175.478 xyz
    dof rx ry rz
  end
  begin
    id 12
    name L_ClavicleDummy
    direction 0.40287 -0.36502 0.839319
    length 2.49392
    axis 2.2224 -6.9761 35.2157 xyz
  end
  begin
    id 13
    name L_Clavicle
    direction -0.231271 -0.0726419 0.970174
    length 4.485
    axis 18.4357 -75.9711 -162.563 xyz
    dof rx ry rz
  end
  begin
    id 14
    name L_UpperArm
    direction -0.917494 0.144359 0.370629
    length 10.1122
    axis 56.0417 -21.7544 171.058 xyz
    dof rx ry rz
  end
  begin
    id 15
    name L_Forearm
    direction -0.496786 0.615074 -0.612281
    length 9.39148
    axis 89.8094 37.7546 128.927 xyz
    dof rx ry rz
  end
  begin
    id 16
    name L_Hand
    direction -0.409932 0.64962 -0.640274
    length 3.66324
    axis -0.424369 32.133 128.52 xyz
    dof rx ry rz
  end
  begin
    id 17
    name L_ThighDummy
    direction -1.84081e-006 1.87549e-006 1
    length 3.13049
    axis 0 0 0 xyz
  end
  begin
    id 18
    name L_Thigh
    direction -0.947739 0.307978 0.083308
    length 17.9961
    axis 173.219 -4.77873 161.998 xyz
    dof rx ry rz
  end
  begin
    id 19
    name L_Calf
    direction -0.728814 -0.684427 0.0197583
    length 13.3367
    axis 167.331 -1.13214 -136.799 xyz
    dof rx ry rz
  end
  begin
    id 20
    name L_Foot
    direction -0.9028 0.418719 0.0981191
    length 5.8674
    axis 163.436 11.5135 -155.37 xyz
    dof rx ry rz
  end
  begin
    id 21
    name L_Toe0
    direction -0.35341 0.886259 0.299411
    length 4.75286
    axis 169.316 -17.4222 111.74 xyz
    dof rx ry rz
  end
  begin
    id 22
    name R_ThighDummy
    direction 9.32778e-007 -8.82053e-007 -1
    length 3.13049
    axis 0 0 0 xyz
  end
  begin
    id 23
    name R_Thigh
    direction -0.925064 0.37528 -0.0585023
    length 17.9961
    axis -178.698 3.35385 157.919 xyz
    dof rx ry rz
  end
  begin
    id 24
    name R_Calf
    direction -0.68969 -0.718776 -0.0876886
    length 13.3367
    axis -160.504 5.03065 -133.817 xyz
    dof rx ry rz
  end
  begin
    id 25
    name R_Foot
    direction -0.857405 0.418858 -0.299022
    length 5.8674
    axis -161.328 4.38911 -154.413 xyz
    dof rx ry rz
  end
  begin
    id 26
    name R_Toe0
    direction -0.100745 0.952789 -0.286433
    length 4.75286
    axis 171.683 16.6445 96.0359 xyz
    dof rx ry rz
  end
:hierarchy
  begin
    root SpineDummy L_ThighDummy R_ThighDummy
    SpineDummy Spine
    Spine Spine1
    Spine1 Neck
    Neck HeadDummy R_ClavicleDummy L_ClavicleDummy
    HeadDummy Head
    R_ClavicleDummy R_Clavicle
    R_Clavicle R_UpperArm
    R_UpperArm R_Forearm
    R_Forearm R_Hand
    L_ClavicleDummy L_Clavicle
    L_Clavicle L_UpperArm
    L_UpperArm L_Forearm
    L_Forearm L_Hand
    L_ThighDummy L_Thigh
    L_Thigh L_Calf
    L_Calf L_Foot
    L_Foot L_Toe0
    R_ThighDummy R_Thigh
    R_Thigh R_Calf
    R_Calf R_Foot
    R_Foot R_Toe0
  end

:SAMPLES-PER-SECOND 30
:FULLY-SPECIFIED
:DEGREES
319
root  13.2846 29.6852 -5.36477 -54.3822 15.8342 74.2869
Spine  -12.4884 -11.0926 2.40577
Spine1  -11.7802 34.1952 -7.1843
Neck  3.97569e-016 0 -2.38542e-015
Head  18.3555 -27.4245 50.8952
R_Clavicle  3.56863 9.01707 13.7112
R_UpperArm  47.4694 -16.921 87.9228
R_Forearm  18.1072 -36.2548 34.9655
R_Hand  -0.914194 6.07198 -17.8285
L_Clavicle  -1.37628 -10.6146 7.34027
L_UpperArm  -39.3892 -7.23108 70.8551
L_Forearm  -4.32268 37.6445 62.1746
L_Hand  -0.216453 -3.43022 -11.8359
L_Thigh  -12.9124 19.523 -24.4272
L_Calf  9.61699 -4.58846 37.0901
L_Foot  -4.2615 -7.91289 -18.0481
L_Toe0  0.645893 0.0193405 -6.29597
R_Thigh  -3.06794 -29.1616 40.7688
R_Calf  -1.66305 5.34009 16.7436
R_Foot  2.67277 7.40373 -12.1006
R_Toe0  -1.78853 -0.272787 -17.3235
320
root  12.4634 28.8122 -3.80632 -51.5804 17.5214 77.6343
Spine  -12.2874 -10.5382 2.61343
Spine1  -10.9901 38.1323 -4.75057
Neck  3.97569e-016 0 -2.38542e-015
Head  18.5301 -29.2473 46.9919
R_Clavicle  4.08214 9.49537 15.4096
R_UpperArm  48.4985 -18.866 84.8373
R_Forearm  17.837 -35.7656 35.3361
R_Hand  -0.919611 5.60955 -17.7615
L_Clavicle  -1.44789 -11.0437 7.46987
L_UpperArm  -39.4662 -8.45142 72.5448
L_Forearm  -3.78507 38.0999 62.3139
L_Hand  -0.176079 -3.78396 -11.6632
L_Thigh  -12.295 15.3183 -22.8668
L_Calf  11.7934 -4.43583 33.449
L_Foot  -4.45281 -11.7117 -15.857
L_Toe0  -0.828395 0.180113 -4.85244
R_Thigh  0.498804 -27.1848 42.4848
R_Calf  -5.80665 8.44331 27.3277
R_Foot  3.81635 13.4595 -10.7244
R_Toe0  -1.78853 -0.272772 -17.3235
321
root  11.9253 27.5577 -2.23914 -46.4947 19.2568 81.7505
Spine  -11.4567 -9.30643 3.45853
Spine1  -10.4456 41.7769 -3.93595
Neck  3.97569e-016 0 -2.38542e-015
Head  17.463 -30.2949 43.2646
R_Clavicle  4.19709 7.96083 16.477
R_UpperArm  49.6276 -19.5441 82.3289
R_Forearm  18.3788 -35.9412 36.3431
R_Hand  -0.944509 5.22356 -17.8956
L_Clavicle  -1.4133 -8.83204 7.75835
L_UpperArm  -41.1905 -11.6352 74.463
L_Forearm  -1.233 38.2449 62.3442
L_Hand  -0.150688 -3.99744 -11.4574
L_Thigh  -11.8978 13.0785 -18.2406
L_Calf  11.291 -3.79453 28.5393
L_Foot  -4.54032 -16.1653 -6.13948
L_Toe0  -4.9714 0.596575 2.30771
R_Thigh  -0.846711 -25.8929 45.4272
R_Calf  -7.51109 9.99327 33.1769
R_Foot  3.62739 12.4419 -9.54973
R_Toe0  -1.78853 -0.272741 -17.3235
322
root  11.7536 26.1968 -0.864504 -40.1379 20.6053 86.1226
Spine  -10.0688 -7.47605 6.62863
Spine1  -11.1243 43.6748 -6.89746
Neck  3.97569e-016 0 -2.38542e-015
Head  16.7062 -29.9358 39.6699
R_Clavicle  3.83135 4.92273 16.4494
R_UpperArm  50.6364 -18.5595 79.2598
R_Forearm  19.9314 -37.1595 37.9447
R_Hand  -0.979952 5.43108 -18.2766
L_Clavicle  -1.17568 -6.49738 6.80196
L_UpperArm  -42.8594 -13.3361 76.6281
L_Forearm  1.21562 37.9571 62.345
L_Hand  -0.107012 -4.42199 -11.5061
L_Thigh  -7.77345 12.397 -10.9943
L_Calf  9.63932 -3.02652 22.2489
L_Foot  -4.89022 -19.7739 10.6338
L_Toe0  -0.0583622 0.00152772 3.08934
R_Thigh  -11.1783 -24.2967 50.2525
R_Calf  -7.54197 9.5335 31.6462
R_Foot  2.72642 8.04301 -11.2065
R_Toe0  -1.78853 -0.272698 -17.3235
323
root  11.8769 24.9471 0.0636927 -34.5092 21.3291 90.5975
Spine  -7.96571 -4.39539 11.2985
Spine1  -11.3256 41.7542 -10.5644
Neck  3.97569e-016 0 -2.38542e-015
Head  17.7214 -28.7262 34.2865
R_Clavicle  3.07359 0.95287 15.0814
R_UpperArm  52.775 -15.3184 73.3581
R_Forearm  19.6732 -38.6826 39.6568
R_Hand  -0.919179 5.66289 -17.7743
L_Clavicle  -0.953163 -3.24617 6.32978
L_UpperArm  -42.1436 -10.9696 77.8677
L_Forearm  -0.406108 37.6159 62.7659
L_Hand  -0.0563091 -4.89089 -11.253
L_Thigh  -2.00158 12.924 -1.86175
L_Calf  10.3613 -1.95234 13.9887
L_Foot  -4.92798 -20.2572 24.8021
L_Toe0  0.669408 0.032645 -6.84785
R_Thigh  -23.286 -23.3079 54.188
R_Calf  -7.83214 9.15289 30.1555
R_Foot  3.80216 14.4396 -20.1267
R_Toe0  -1.78853 -0.272648 -17.3235
324
root  12.1694 24.0346 0.394896 -29.9604 21.6333 96.1837
Spine  -4.51946 0.523464 15.5036
Spine1  -9.31569 36.0482 -12.3148
Neck  3.97569e-016 0 -2.38542e-015
Head  19.0441 -27.8993 26.8244
R_Clavicle  2.0681 -4.00088 12.2829
R_UpperArm  55.812 -8.06721 65.9828
R_Forearm  15.1085 -40.0589 41.1357
R_Hand  -0.821406 5.50092 -16.8147
L_Clavicle  -0.575713 2.44745 4.21311
L_UpperArm  -40.3467 -7.66709 74.3983
L_Forearm  -5.76306 37.6662 64.2813
L_Hand  -0.0697873 -4.6884 -10.2745
L_Thigh  1.8154 14.9185 7.87546
L_Calf  13.8365 -0.799348 5.67442
L_Foot  -4.63178 -19.8656 30.7074
L_Toe0  0.498417 0.0345159 -6.14206
R_Thigh  -29.198 -22.8808 57.9602
R_Calf  -9.42795 8.99155 29.3995
R_Foot  4.20868 20.7967 -24.7498
R_Toe0  -1.78853 -0.272597 -17.3235
325
root  12.6231 23.9137 -0.0633415 -24.6984 22.0344 103.672
Spine  -0.060077 6.70629 19.1447
Spine1  -6.52199 27.271 -14.1369
Neck  3.97569e-016 0 -2.38542e-015
Head  18.5131 -27.2147 19.3281
R_Clavicle  1.09533 -9.55569 8.03018
R_UpperArm  57.5509 4.07206 60.5129
R_Forearm  7.8679 -41.8884 42.2109
R_Hand  -0.892315 5.70854 -17.5587
L_Clavicle  -0.383649 10.1475 1.93373
L_UpperArm  -39.9352 -9.43255 63.7162
L_Forearm  -9.41463 38.5808 66.0957
L_Hand  -0.116704 -3.92638 -8.6581
L_Thigh  3.3207 17.42 15.8008
L_Calf  18.0864 -0.953736 6.64442
L_Foot  -4.81937 -20.1031 28.7272
L_Toe0  0.505163 0.0345319 -6.13609
R_Thigh  -30.9652 -22.3035 62.0568
R_Calf  -8.00225 8.48624 27.5293
R_Foot  4.45345 23.4755 -24.0569
R_Toe0  -1.78853 -0.272548 -17.3235
326
root  13.2136 24.5739 -1.51269 -17.1027 21.938 112.766
Spine  3.6108 13.0052 22.561
Spine1  -4.50095 15.9578 -16.9806
Neck  3.97569e-016 0 -2.38542e-015
Head  16.0433 -25.1385 13.3968
R_Clavicle  0.568599 -12.1215 3.64015
R_UpperArm  57.1079 17.6574 55.2415
R_Forearm  1.95019 -44.1584 42.6618
R_Hand  -1.17207 6.91879 -20.1895
L_Clavicle  -0.426346 15.2758 -0.802163
L_UpperArm  -39.4776 -16.8119 48.4943
L_Forearm  -9.07295 39.9624 65.5362
L_Hand  -0.128614 -3.20865 -6.5616
L_Thigh  2.39419 20.3798 21.5687
L_Calf  20.9797 -2.48865 19.924
L_Foot  -5.37042 -21.1813 21.1976
L_Toe0  0.505167 0.0345998 -6.13609
R_Thigh  -30.5991 -21.8326 65.9353
R_Calf  -7.31405 7.50221 24.1019
R_Foot  4.73696 23.9827 -21.7963
R_Toe0  -1.78853 -0.272507 -17.3235
327
root  13.6409 25.1346 -3.57422 -9.09354 19.0359 121.99
Spine  5.61994 17.7962 25.0365
Spine1  -3.17199 5.3896 -19.6314
Neck  3.97569e-016 0 -2.38542e-015
Head  13.0973 -21.821 8.64738
R_Clavicle  0.391589 -5.87403 1.67585
R_UpperArm  55.5104 27.0199 44.7804
R_Forearm  -0.50241 -44.6823 41.7002
R_Hand  -1.52443 7.54642 -22.9962
L_Clavicle  -0.422153 15.458 -3.60091
L_UpperArm  -37.6136 -24.5618 32.9816
L_Forearm  -7.55434 41.0378 65.1249
L_Hand  -0.118025 -2.75224 -5.08507
L_Thigh  -3.43562 26.0855 23.5516
L_Calf  20.7906 -5.11015 41.8076
L_Foot  -6.9616 -24.6189 11.4551
L_Toe0  0.50517 0.0346666 -6.13608
R_Thigh  -27.0987 -21.1328 69.8056
R_Calf  -8.42901 5.78354 18.3316
R_Foot  4.80586 23.0677 -20.2253
R_Toe0  -1.78853 -0.272478 -17.3235
328
root  13.6622 25.086 -5.78307 -3.98173 13.2999 128.832
Spine  5.71249 18.5951 26.7569
Spine1  -2.3489 -0.958138 -22.4711
Neck  3.97569e-016 0 -2.38542e-015
Head  10.7856 -18.6734 4.60986
R_Clavicle  1.26165 5.63929 6.14911
R_UpperArm  55.5789 33.1887 31.9918
R_Forearm  -0.556455 -41.8521 39.4423
R_Hand  -1.79181 6.63602 -25.4172
L_Clavicle  -0.1532 12.4644 -6.23359
L_UpperArm  -36.2474 -30.0169 20.9166
L_Forearm  -8.94552 40.6171 65.2841
L_Hand  -0.118082 -2.94202 -5.4032
L_Thigh  -6.21521 33.9387 24.3879
L_Calf  10.0329 -9.16465 53.586
L_Foot  -4.86391 -19.2274 5.19494
L_Toe0  0.505173 0.0347326 -6.13607
R_Thigh  -20.5729 -19.7809 73.4279
R_Calf  -7.63914 3.19901 10.0387
R_Foot  4.82784 21.4702 -17.7268
R_Toe0  -1.78853 -0.272466 -17.3235
